<svg id="Layer_1" data-name="Layer 1" xmlns="http://www.w3.org/2000/svg" viewBox="0 0 255.78 124.41"><defs><style>.cls-1,.cls-2{fill:#fff;}.cls-2{font-size:10.42px;font-family:GTAmerica-CondensedMedium, GT America;}.cls-3{fill:none;stroke:#fff;stroke-miterlimit:10;stroke-width:0.75px;}</style></defs><title>bakeandgo_logo_01_white</title><path class="cls-1" d="M66.39,118.73c0,2.69-1.75,5.16-6.44,5.16H49.79v-18.5h9.85c4.58,0,6.25,2.37,6.25,4.8a4.08,4.08,0,0,1-3.33,4.09A4.17,4.17,0,0,1,66.39,118.73Zm-13-10.68v5.13H59c2.69,0,3.26-1.35,3.26-2.6s-.7-2.53-3.26-2.53Zm9.3,10.4c0-1.57-1-2.71-3.33-2.71h-6v5.49h5.86C61.78,121.23,62.71,120,62.71,118.45Z"/><path class="cls-1" d="M82.33,119.38h-9l-1.82,4.51H67.69l8.07-18.5h4.1l8.07,18.5H84.16Zm-1-2.63L79,111.07a15.13,15.13,0,0,1-1.15-3h0a17.57,17.57,0,0,1-1.18,3l-2.29,5.68Z"/><path class="cls-1" d="M98,115l-3.6,3.44v5.47H90.82v-18.5h3.62v9l9.12-9H108l-7.38,7.22,8,11.28h-4.25Z"/><path class="cls-1" d="M126.28,121.13v2.76H111.56v-18.5H126.1v2.76H115.18v4.95h10.47v2.69H115.18v5.34Z"/><path class="cls-1" d="M155.77,121.34v2.58a5.84,5.84,0,0,1-1.67.26,6.12,6.12,0,0,1-4.11-1.67,10.07,10.07,0,0,1-6.08,1.9c-4.61,0-7.16-2.21-7.16-5.21,0-2.29,1.33-3.78,4.25-5.18-1.7-1.72-2.51-3.08-2.51-4.69,0-2.87,2.32-4.64,5.58-4.64s5.52,1.69,5.52,4.38a5.6,5.6,0,0,1-3.41,4.76l-.86.45,4.69,4.43a11.65,11.65,0,0,0,1.77-5.24l2.77.47a12.77,12.77,0,0,1-2.51,6.59,4,4,0,0,0,2.56.94A4.06,4.06,0,0,0,155.77,121.34Zm-11.47.57a6.4,6.4,0,0,0,3.78-1.2l-5.36-5c-1.83,1-2.51,1.82-2.51,3.25C140.21,120.69,142,121.91,144.3,121.91Zm-2.6-12.71c0,1.06.39,1.92,2,3.51l.73-.34a3.36,3.36,0,0,0,2.11-3.2,2.16,2.16,0,0,0-2.45-2.29A2.12,2.12,0,0,0,141.7,109.2Z"/><path class="cls-1" d="M165.38,114.69c0-5.78,3.86-9.82,10.21-9.82,5.32,0,8.26,2.81,9,5.81l-3.72.63c-.47-1.88-2.14-3.65-5.37-3.65-4,0-6.39,2.79-6.39,7,0,4.07,2.27,6.93,6.41,6.93s5.87-2.76,5.92-4.84v-.24h-6.18v-2.63h9.46v10h-2.66l-.26-3c-1.09,2.06-3.51,3.54-7,3.54C169,124.41,165.38,120.4,165.38,114.69Z"/><path class="cls-1" d="M187.18,114.64c0-6,4-9.77,10.22-9.77s10.21,3.78,10.21,9.77-4,9.77-10.21,9.77S187.18,120.58,187.18,114.64Zm16.65,0c0-4.25-2.47-6.93-6.43-6.93s-6.44,2.68-6.44,6.93,2.48,6.93,6.44,6.93S203.83,118.89,203.83,114.64Z"/><text class="cls-2" transform="translate(44.95 31.13) rotate(-30.63)">P</text><text class="cls-2" transform="translate(50.48 27.88) rotate(-27.75)">Ã</text><text class="cls-2" transform="translate(56.95 24.51) rotate(-24.66)">O</text><text class="cls-2" transform="translate(64.1 21.3) rotate(-22.36)"> </text><text class="cls-2" transform="translate(67.24 20) rotate(-20.32)">A</text><text class="cls-2" transform="matrix(0.95, -0.3, 0.3, 0.95, 74.25, 17.44)">R</text><text class="cls-2" transform="translate(81.05 15.33) rotate(-15.11)">T</text><text class="cls-2" transform="translate(87.37 13.65) rotate(-12.76)">E</text><text class="cls-2" transform="matrix(0.98, -0.18, 0.18, 0.98, 93.81, 12.22)">S</text><text class="cls-2" transform="translate(100.54 11.01) rotate(-8.01)">A</text><text class="cls-2" transform="translate(107.95 9.99) rotate(-5.41)">N</text><text class="cls-2" transform="translate(116.05 9.27) rotate(-2.85)">A</text><text class="cls-2" transform="matrix(1, -0.01, 0.01, 1, 123.54, 8.94)">L</text><text class="cls-2" transform="translate(129.1 8.9) rotate(0.74)"> </text><text class="cls-2" transform="translate(132.86 8.96) rotate(1.99)">·</text><text class="cls-2" transform="matrix(1, 0.06, -0.06, 1, 136.85, 9.12)"> </text><text class="cls-2" transform="translate(140.57 9.32) rotate(5.09)">C</text><text class="cls-2" transform="translate(148.02 10.02) rotate(7.64)">O</text><text class="cls-2" transform="translate(155.77 11.1) rotate(10.06)">F</text><text class="cls-2" transform="matrix(0.98, 0.21, -0.21, 0.98, 162.13, 12.26)">F</text><text class="cls-2" transform="matrix(0.97, 0.25, -0.25, 0.97, 168.43, 13.66)">E</text><text class="cls-2" transform="translate(174.9 15.37) rotate(17.03)">E</text><text class="cls-2" transform="matrix(0.95, 0.32, -0.32, 0.95, 181.3, 17.39)"> </text><text class="cls-2" transform="translate(184.83 18.6) rotate(20.99)">S</text><text class="cls-2" transform="translate(191.25 21.08) rotate(23.89)">H</text><text class="cls-2" transform="matrix(0.89, 0.46, -0.46, 0.89, 198.51, 24.35)">O</text><text class="cls-2" transform="translate(205.43 27.95) rotate(30.3)">P</text><path class="cls-3" d="M129.29,44.15c3.51,2.78,7.27,6,8.09,10.35a1.71,1.71,0,0,1-.26,1.52c-.58.57-1.55.16-2.23-.27l-19.5-12.36a21.05,21.05,0,0,0-6.3-3.07c-3.22-.76-6.6,0-9.73,1.11a52.39,52.39,0,0,0-10,4.65,2.44,2.44,0,0,0-1.11,1c-.49,1.16.83,2.23,1.92,2.88a27.33,27.33,0,0,1,11.34,13.4c.37.94.63,2.15-.11,2.84-.91.86-2.38.1-3.37-.67l-9.32-7.23c-3.4-2.63-8.34-7-11.58-4.2-5.45,4.77-9.37,12.42-6.91,19.24,1.68,4.65,5.94,7.9,10.41,10A60.82,60.82,0,0,0,98,88.18C124,92,152,87.67,173.29,72.31a38.82,38.82,0,0,0,10.08-9.88c2.59-4,4-8.82,3.2-13.47a16.38,16.38,0,0,0-7.87-10.6.94.94,0,0,0-.43-.16c-.22,0-.58.29-.49.51a14,14,0,0,1,1,4.23c.05.66-.11,1.53-.76,1.61a1.06,1.06,0,0,1-.76-.25,5.71,5.71,0,0,1-1.44-2c-1.66-3-3.66-6.37-7-7.21a61.31,61.31,0,0,0-12.44-1.73c-1,0-2.27-.08-2.45.87a1.93,1.93,0,0,0,.44,1.33,67.25,67.25,0,0,1,4.32,8c.7,1.56,1.2,3.72-.2,4.71-3.53-.21-6.31-3-8.45-5.84s-4.2-6-7.44-7.39a16.33,16.33,0,0,0-6.33-1,86.32,86.32,0,0,0-14.19.93c-.84.13-1.9.5-1.91,1.36,0,.55.47,1,.91,1.32l8.21,6.49"/><path class="cls-1" d="M80.83,53.39a4.93,4.93,0,0,1,1.61-1.76A12.91,12.91,0,0,1,84.5,50.5,33.15,33.15,0,0,1,88.91,49a27.32,27.32,0,0,1-4.1,2.17A19.14,19.14,0,0,0,80.83,53.39Z"/><path class="cls-1" d="M109,40.08a19.65,19.65,0,0,1,5.51-1.93,28.09,28.09,0,0,0,5.5-1.73,11.75,11.75,0,0,1-5.32,2.45C112.74,39.32,110.86,39.61,109,40.08Z"/><path class="cls-1" d="M143.71,35.22a5.91,5.91,0,0,1,2.46-.74,15.51,15.51,0,0,1,2.55,0,21.74,21.74,0,0,0,5,.1,6.08,6.08,0,0,1-2.47.68,16.65,16.65,0,0,1-2.55,0A19.15,19.15,0,0,0,143.71,35.22Z"/><path class="cls-1" d="M172.39,37a5,5,0,0,1,2.87.09c.94.34,1.6.88,2.53,1.13a2.46,2.46,0,0,1-1.47,0c-.47-.12-.9-.31-1.31-.45C174.2,37.52,173.3,37.39,172.39,37Z"/><path class="cls-1" d="M84.79,53.43c.75-.47,1.52-.89,2.25-1.36l2.24-1.38a12.73,12.73,0,0,1-2.11,1.6A13,13,0,0,1,84.79,53.43Z"/><path class="cls-1" d="M87.07,54.46a8.61,8.61,0,0,1,2-1.76,8.87,8.87,0,0,1,2.43-1.1,25.82,25.82,0,0,0-2.3,1.31A24,24,0,0,0,87.07,54.46Z"/><path class="cls-1" d="M88.25,55.68a12.46,12.46,0,0,1,5.2-2.85c-.89.43-1.79.84-2.65,1.33S89.1,55.16,88.25,55.68Z"/><path class="cls-1" d="M89.51,56.89a2.67,2.67,0,0,1,1.06-1c.42-.26.86-.48,1.29-.71a16.1,16.1,0,0,1,2.75-1.06L92,55.39,90.66,56A3.47,3.47,0,0,0,89.51,56.89Z"/><path class="cls-1" d="M90.79,57.84a10.13,10.13,0,0,1,2.37-1.56,10,10,0,0,1,2.69-.87c-.88.34-1.75.67-2.58,1.09S91.61,57.37,90.79,57.84Z"/><path class="cls-1" d="M92.29,59.05a6.65,6.65,0,0,1,4.33-2.33A13.76,13.76,0,0,0,92.29,59.05Z"/><path class="cls-1" d="M93.34,59.69a9,9,0,0,1,2.07-1.24,8.83,8.83,0,0,1,2.32-.67c-.75.3-1.5.57-2.22.9S94.07,59.35,93.34,59.69Z"/><path class="cls-1" d="M94.38,61a7.38,7.38,0,0,1,2-1.34A7.55,7.55,0,0,1,98.71,59c-.76.27-1.51.53-2.23.87A22.21,22.21,0,0,0,94.38,61Z"/><path class="cls-1" d="M95.46,62.2a7.75,7.75,0,0,1,1.77-1.11,7.35,7.35,0,0,1,2-.61c-.64.29-1.28.54-1.9.84S96.1,61.91,95.46,62.2Z"/><path class="cls-1" d="M96.82,63.14a5.24,5.24,0,0,1,1.45-1,5.33,5.33,0,0,1,1.69-.51c-.53.26-1.07.47-1.58.73S97.35,62.88,96.82,63.14Z"/><path class="cls-1" d="M97.65,64.2a5.4,5.4,0,0,1,1.44-1,5.23,5.23,0,0,1,1.68-.49c-.53.25-1.06.46-1.57.71S98.18,64,97.65,64.2Z"/><path class="cls-1" d="M98.68,65.71a3.83,3.83,0,0,1,2.94-1.29A13.07,13.07,0,0,0,98.68,65.71Z"/><path class="cls-1" d="M114.62,40.77c1.11-.51,2.25-.92,3.38-1.35s2.3-.8,3.47-1.11c-1.11.51-2.25.92-3.38,1.35S115.8,40.46,114.62,40.77Z"/><path class="cls-1" d="M116.71,42a16,16,0,0,1,6.62-2.4c-1.13.33-2.26.65-3.36,1.06S117.79,41.56,116.71,42Z"/><path class="cls-1" d="M118.18,42.92a12.12,12.12,0,0,1,2.76-1.27,12.28,12.28,0,0,1,3-.59c-1,.26-2,.5-2.91.82S119.13,42.56,118.18,42.92Z"/><path class="cls-1" d="M118.77,44.75A11.87,11.87,0,0,1,125,42.18a24.62,24.62,0,0,0-3.21,1.06A25.28,25.28,0,0,0,118.77,44.75Z"/><path class="cls-1" d="M120.14,45.21a13.48,13.48,0,0,1,7-2.37,26.33,26.33,0,0,0-3.57.93A28.17,28.17,0,0,0,120.14,45.21Z"/><path class="cls-1" d="M121.84,46.2a16.32,16.32,0,0,1,3.39-1.64,16,16,0,0,1,3.67-.83c-1.21.32-2.42.64-3.59,1.07S123,45.69,121.84,46.2Z"/><path class="cls-1" d="M123.76,47a10.76,10.76,0,0,1,2.83-1.43,11.07,11.07,0,0,1,3.12-.56,26.12,26.12,0,0,0-3,.8A24.35,24.35,0,0,0,123.76,47Z"/><path class="cls-1" d="M124.63,48.16a14.49,14.49,0,0,1,3.14-1.53,14.17,14.17,0,0,1,3.4-.75c-1.12.3-2.24.59-3.32,1A34.31,34.31,0,0,0,124.63,48.16Z"/><path class="cls-1" d="M126.15,49.31a12.61,12.61,0,0,1,3-1.38,12.76,12.76,0,0,1,3.24-.59c-1.07.24-2.13.48-3.16.82S127.16,48.89,126.15,49.31Z"/><path class="cls-1" d="M127.69,50.29a10.66,10.66,0,0,1,6-2,21.95,21.95,0,0,0-6,2Z"/><path class="cls-1" d="M130.09,51a7.74,7.74,0,0,1,2.33-1.13,7.4,7.4,0,0,1,2.56-.3,18.68,18.68,0,0,0-2.49.54A19.86,19.86,0,0,0,130.09,51Z"/><path class="cls-1" d="M131.45,52.32a7.87,7.87,0,0,1,2-1,7.65,7.65,0,0,1,2.22-.42c-.72.22-1.44.4-2.14.66S132.15,52.06,131.45,52.32Z"/><path class="cls-1" d="M132.8,53.25a5.52,5.52,0,0,1,1.65-.94,5.66,5.66,0,0,1,1.87-.33c-.61.19-1.21.35-1.79.57S133.38,53,132.8,53.25Z"/><path class="cls-1" d="M133.55,54.31a4.72,4.72,0,0,1,1.52-.88,4.92,4.92,0,0,1,1.73-.33c-.56.2-1.11.35-1.64.56S134.1,54.09,133.55,54.31Z"/><path class="cls-1" d="M134.51,55.52a4.13,4.13,0,0,1,1.24-.71,4.18,4.18,0,0,1,1.4-.26c-.44.19-.89.32-1.32.5S135,55.38,134.51,55.52Z"/><path class="cls-1" d="M148,37.32a14.32,14.32,0,0,1,3.23-1.16,13.56,13.56,0,0,1,3.41-.37c-1.13.17-2.25.34-3.35.61S149.12,37,148,37.32Z"/><path class="cls-1" d="M149.33,38.3a9,9,0,0,1,2.63-.84,9.2,9.2,0,0,1,2.77-.06,26.93,26.93,0,0,0-2.72.3A27.29,27.29,0,0,0,149.33,38.3Z"/><path class="cls-1" d="M149.52,39.54A2.88,2.88,0,0,1,150.9,39c.49-.11,1-.18,1.47-.25a15.72,15.72,0,0,1,3-.1c-1,.13-2,.21-3,.35l-1.47.19A3.63,3.63,0,0,0,149.52,39.54Z"/><path class="cls-1" d="M150.64,40.48a9.51,9.51,0,0,1,2.64-.57,10.1,10.1,0,0,1,2.69.16c-.9,0-1.79,0-2.67.09S151.53,40.35,150.64,40.48Z"/><path class="cls-1" d="M151.16,41.94a9.95,9.95,0,0,1,6-.6,23,23,0,0,0-3,.09A23.5,23.5,0,0,0,151.16,41.94Z"/><path class="cls-1" d="M152.35,43.32a9.47,9.47,0,0,1,2.61-.78,9.12,9.12,0,0,1,2.71,0,26.69,26.69,0,0,0-2.68.25C154.11,42.91,153.24,43.12,152.35,43.32Z"/><path class="cls-1" d="M153.51,44.72a7.06,7.06,0,0,1,4.85-.7A16.26,16.26,0,0,0,153.51,44.72Z"/><path class="cls-1" d="M155.2,45.89a4.89,4.89,0,0,1,3.63-.74A15.61,15.61,0,0,0,155.2,45.89Z"/><path class="cls-1" d="M156.28,47.08a3.33,3.33,0,0,1,2.56-.67c-.44.12-.86.19-1.28.32S156.72,47,156.28,47.08Z"/><path class="cls-1" d="M157.28,48.05a1.8,1.8,0,0,1,.7-.42,1.63,1.63,0,0,1,.82,0,4.51,4.51,0,0,1-.75.27A5.79,5.79,0,0,1,157.28,48.05Z"/><path class="cls-1" d="M94.48,45.87a38,38,0,0,1,5.12-2.72,14.39,14.39,0,0,1,5.67-1.24,8.3,8.3,0,0,1,2.87.58,18.59,18.59,0,0,1,2.57,1.37q2.49,1.48,4.94,3c-1.68-1-3.36-1.91-5-2.89a17.77,17.77,0,0,0-2.57-1.31,7.85,7.85,0,0,0-2.79-.53,14.06,14.06,0,0,0-5.6,1.14A51.05,51.05,0,0,0,94.48,45.87Z"/><path class="cls-1" d="M91.63,48.74c.93.58,1.86,1.11,2.76,1.73a22,22,0,0,1,2.52,2.09,19.54,19.54,0,0,1,3.81,5.27,25.26,25.26,0,0,0-4-5.09,23.48,23.48,0,0,0-2.45-2.11Z"/><path class="cls-1" d="M93.48,48.39a3.8,3.8,0,0,1,1.5.46,3.7,3.7,0,0,1,1.21,1A19.68,19.68,0,0,0,93.48,48.39Z"/><path class="cls-1" d="M77.23,56.94a20.41,20.41,0,0,0-4.74,8.84A14.77,14.77,0,0,1,77.23,56.94Z"/><path class="cls-1" d="M76.26,61a14.48,14.48,0,0,0-2.37,4.58A7.1,7.1,0,0,1,76.26,61Z"/><path class="cls-1" d="M76.36,63.81a9.25,9.25,0,0,0-1.49,3.81A4.6,4.6,0,0,1,76.36,63.81Z"/><path class="cls-1" d="M77.6,65A9.56,9.56,0,0,0,76,69,4.88,4.88,0,0,1,77.6,65Z"/><path class="cls-1" d="M78.73,66.44c-.22.6-.46,1.17-.63,1.77s-.33,1.2-.48,1.82a5.26,5.26,0,0,1,.24-1.89A5.37,5.37,0,0,1,78.73,66.44Z"/><path class="cls-1" d="M80.14,67.73a9.69,9.69,0,0,0-.76,3A3.45,3.45,0,0,1,80.14,67.73Z"/><path class="cls-1" d="M72.25,66.78A16.15,16.15,0,0,0,72,75.5,11.6,11.6,0,0,1,72.25,66.78Z"/><path class="cls-1" d="M73.65,69.39a43.18,43.18,0,0,0-.52,4.36A10.13,10.13,0,0,0,73.81,78a8.07,8.07,0,0,1-.93-4.3A19.94,19.94,0,0,1,73.65,69.39Z"/><path class="cls-1" d="M75.24,71.39A16.7,16.7,0,0,0,75,79.46,11.29,11.29,0,0,1,75.24,71.39Z"/><path class="cls-1" d="M76.77,72.19a24.84,24.84,0,0,0-.07,4,26,26,0,0,0,.55,3.92,14,14,0,0,1-.8-3.9A13.56,13.56,0,0,1,76.77,72.19Z"/><path class="cls-1" d="M78.64,73.79a28.22,28.22,0,0,0,.09,8,15.22,15.22,0,0,1-.09-8Z"/><path class="cls-1" d="M80.56,74.11a18.49,18.49,0,0,0-.41,4.26c0,1.43.11,2.86.14,4.3a27,27,0,0,1-.39-4.3A12.29,12.29,0,0,1,80.56,74.11Z"/><path class="cls-1" d="M82.46,75.64A24.28,24.28,0,0,0,82.22,83a13,13,0,0,1,.24-7.35Z"/><path class="cls-1" d="M84.23,76.72a32.11,32.11,0,0,0-.32,7.15,14,14,0,0,1-.29-3.59A14.28,14.28,0,0,1,84.23,76.72Z"/><path class="cls-1" d="M86.2,77.49a33.51,33.51,0,0,0-.51,7.4,15.06,15.06,0,0,1-.2-3.73A15.68,15.68,0,0,1,86.2,77.49Z"/><path class="cls-1" d="M87.88,78.47c-.16,1.19-.32,2.37-.39,3.56s-.11,2.37-.13,3.57A16,16,0,0,1,87.24,82,16.23,16.23,0,0,1,87.88,78.47Z"/><path class="cls-1" d="M89.41,79.52a22.58,22.58,0,0,0-.35,3.06,24.28,24.28,0,0,0,.09,3.07,10.24,10.24,0,0,1,.26-6.13Z"/><path class="cls-1" d="M91.45,79.76c-.13,1-.27,2.09-.32,3.14s-.07,2.1-.07,3.16a12.94,12.94,0,0,1-.18-3.17A13.28,13.28,0,0,1,91.45,79.76Z"/><path class="cls-1" d="M93.41,80.16a18.28,18.28,0,0,0-.32,6.3A9.73,9.73,0,0,1,93.41,80.16Z"/><path class="cls-1" d="M95.34,80.58c0,1-.07,2-.14,2.93s-.19,1.94-.38,2.9c0-1,.06-2,.13-2.93S95.15,81.54,95.34,80.58Z"/><path class="cls-1" d="M96.88,80.51A15,15,0,0,1,97,83.28,14.17,14.17,0,0,1,96.68,86c0-.93.07-1.84.09-2.76S96.82,81.43,96.88,80.51Z"/><path class="cls-1" d="M98.67,80.64a16.53,16.53,0,0,1,.14,3,17.46,17.46,0,0,1-.36,3Z"/><path class="cls-1" d="M100.65,80.79a20,20,0,0,1,.08,3.28,18.84,18.84,0,0,1-.47,3.26c.06-1.1.17-2.18.22-3.27S100.58,81.88,100.65,80.79Z"/><path class="cls-1" d="M102.57,80.93a14.9,14.9,0,0,1-.36,5.94c.07-1,.18-2,.23-3S102.52,81.92,102.57,80.93Z"/><path class="cls-1" d="M104.45,80.46a17.79,17.79,0,0,1,.32,3.64,18.43,18.43,0,0,1-.4,3.63c.07-1.21.15-2.42.15-3.63S104.49,81.68,104.45,80.46Z"/><path class="cls-1" d="M106.14,78.67a29.73,29.73,0,0,1,.51,5,13.4,13.4,0,0,1-.8,5,18.75,18.75,0,0,0,.55-5C106.41,82,106.23,80.34,106.14,78.67Z"/><path class="cls-1" d="M108.49,79a23.64,23.64,0,0,1,.15,4.37,23.23,23.23,0,0,1-.65,4.32c.16-1.45.33-2.88.4-4.33S108.48,80.5,108.49,79Z"/><path class="cls-1" d="M110,78.94c.12.76.25,1.51.31,2.27a19.61,19.61,0,0,1,0,2.3,17.25,17.25,0,0,1-.82,4.5,31.38,31.38,0,0,0,.57-4.52A36.45,36.45,0,0,0,110,78.94Z"/><path class="cls-1" d="M112.15,78.79a22,22,0,0,1-.36,9.32,45.66,45.66,0,0,0,.43-4.65A42.85,42.85,0,0,0,112.15,78.79Z"/><path class="cls-1" d="M114.35,79.13a28.1,28.1,0,0,1,.2,4.94,29,29,0,0,1-.63,4.9c.16-1.64.32-3.28.38-4.92S114.37,80.78,114.35,79.13Z"/><path class="cls-1" d="M116.23,77.65a24.74,24.74,0,0,1,.57,5.63,25.31,25.31,0,0,1-.67,5.61,42.39,42.39,0,0,0,.42-5.62A40.74,40.74,0,0,0,116.23,77.65Z"/><path class="cls-1" d="M118.19,77.59a24.84,24.84,0,0,1,.33,5.38,24.52,24.52,0,0,1-.8,5.32,47.92,47.92,0,0,0,.56-5.33A45.83,45.83,0,0,0,118.19,77.59Z"/><path class="cls-1" d="M119.74,78.22a22.4,22.4,0,0,1,.24,5.24,22.11,22.11,0,0,1-1,5.16,38,38,0,0,0,.74-5.18A39.53,39.53,0,0,0,119.74,78.22Z"/><path class="cls-1" d="M121.18,78.22a19.69,19.69,0,0,1-.48,10.69,30.94,30.94,0,0,0,.73-5.32A30.2,30.2,0,0,0,121.18,78.22Z"/><path class="cls-1" d="M123,77.15a22.75,22.75,0,0,1-.07,11,35.8,35.8,0,0,0,.07-11Z"/><path class="cls-1" d="M124.8,77.26a27.62,27.62,0,0,1,.63,5.51A27,27,0,0,1,125,88.3a50.12,50.12,0,0,0-.17-11Z"/><path class="cls-1" d="M127,77.26a29,29,0,0,1,.31,5.5,28,28,0,0,1-.73,5.47c.23-1.82.42-3.65.48-5.47S127.07,79.1,127,77.26Z"/><path class="cls-1" d="M128.75,76.62a30,30,0,0,1,.22,5.84,31.29,31.29,0,0,1-.88,5.78c.29-1.93.53-3.85.63-5.79A56.69,56.69,0,0,0,128.75,76.62Z"/><path class="cls-1" d="M130.48,76.24a20.79,20.79,0,0,1-.31,10.43,33.89,33.89,0,0,0,.57-5.21A35.11,35.11,0,0,0,130.48,76.24Z"/><path class="cls-1" d="M132.36,75.77a18.21,18.21,0,0,1-.5,11.28A25,25,0,0,0,132.36,75.77Z"/><path class="cls-1" d="M157.25,36.73a5.72,5.72,0,0,1,1.87,2,11.92,11.92,0,0,1,1.06,2.56A16.23,16.23,0,0,0,157.25,36.73Z"/><path class="cls-1" d="M124.67,37c-.2.28,0,.61.21.84s.42.47.65.68A12,12,0,0,0,127,39.74c1,.75,2.1,1.4,3.16,2.09a43,43,0,0,1,5.9,4.78A58,58,0,0,0,130,42c-1-.71-2.12-1.39-3.12-2.17a13.14,13.14,0,0,1-1.42-1.27,8.55,8.55,0,0,1-.61-.74C124.66,37.63,124.45,37.26,124.67,37Z"/><path class="cls-1" d="M131,41.05a32.92,32.92,0,0,0,2.92,2,9.75,9.75,0,0,1,2.65,2.39,16.26,16.26,0,0,0-2.79-2.18A14.55,14.55,0,0,1,131,41.05Z"/><path class="cls-1" d="M132.2,36a9.74,9.74,0,0,1,2.46-.41,10.34,10.34,0,0,1,2.49.19c-.83,0-1.65,0-2.48.06S133,35.9,132.2,36Z"/><path class="cls-1" d="M139.7,36.15a14.07,14.07,0,0,1,3.52,2.4,16.54,16.54,0,0,1,1.46,1.56,4.5,4.5,0,0,1,1,1.85,2.28,2.28,0,0,0-.51-.91q-.33-.42-.69-.81a19.19,19.19,0,0,0-1.48-1.51A23.49,23.49,0,0,0,139.7,36.15Z"/><path class="cls-1" d="M126.44,67.84a20.07,20.07,0,0,1,1.26,3.79,19.58,19.58,0,0,1,.48,4c-.21-1.31-.42-2.62-.73-3.91S126.81,69.12,126.44,67.84Z"/><path class="cls-1" d="M128.16,66.89a18.82,18.82,0,0,1,1.4,3.8,19.29,19.29,0,0,1,.57,4c-.24-1.33-.47-2.65-.81-4S128.59,68.17,128.16,66.89Z"/><path class="cls-1" d="M130.29,67.85a14.29,14.29,0,0,1,1.19,3.26,13.85,13.85,0,0,1,.4,3.45c-.18-1.15-.36-2.28-.64-3.39S130.64,69,130.29,67.85Z"/><path class="cls-1" d="M132.45,70.22a7.72,7.72,0,0,1,.5,1.68,7.9,7.9,0,0,1,.13,1.75c-.17-.57-.25-1.14-.37-1.7S132.5,70.81,132.45,70.22Z"/><path class="cls-1" d="M126.16,72a4.39,4.39,0,0,1,.55,1.49,4.66,4.66,0,0,1,0,1.58c-.1-.52-.16-1-.27-1.54S126.25,72.51,126.16,72Z"/><path class="cls-1" d="M125,72.78a3,3,0,0,1,.62,2.76A9.3,9.3,0,0,0,125,72.78Z"/><path class="cls-1" d="M123.64,73.13a3.49,3.49,0,0,1,.42,1.21,3.39,3.39,0,0,1,0,1.27c-.11-.42-.14-.83-.22-1.23S123.68,73.56,123.64,73.13Z"/><path class="cls-1" d="M133.83,74.19a25.58,25.58,0,0,1,.47,13.41,35.19,35.19,0,0,0-.47-13.41Z"/><path class="cls-1" d="M135.63,73.37a42.32,42.32,0,0,1,.88,6.73,42.77,42.77,0,0,1-.19,6.79c.05-2.26.07-4.52-.06-6.77S135.91,75.62,135.63,73.37Z"/><path class="cls-1" d="M137.59,73.61a25,25,0,0,1,.85,12.49,36.14,36.14,0,0,0-.85-12.49Z"/><path class="cls-1" d="M139.41,71.65a27.09,27.09,0,0,1,.8,13.45,38.06,38.06,0,0,0-.8-13.45Z"/><path class="cls-1" d="M141.31,71.3a32.37,32.37,0,0,1,.86,14.47,46.28,46.28,0,0,0-.86-14.47Z"/><path class="cls-1" d="M143.2,70.3a32.2,32.2,0,0,1,1.19,15.3,43.21,43.21,0,0,0-1.19-15.3Z"/><path class="cls-1" d="M145.27,70.25a31.95,31.95,0,0,1,1,14.54,45.77,45.77,0,0,0,.09-7.31A44.46,44.46,0,0,0,145.27,70.25Z"/><path class="cls-1" d="M147.09,69.83A42.32,42.32,0,0,1,148.33,85a66,66,0,0,0-1.24-15.2Z"/><path class="cls-1" d="M148.85,69.5a38.46,38.46,0,0,1,1.24,6.74,39.17,39.17,0,0,1,.06,6.85c0-2.29-.08-4.56-.31-6.83A67.13,67.13,0,0,0,148.85,69.5Z"/><path class="cls-1" d="M151,69A38.63,38.63,0,0,1,152,83.13a64.12,64.12,0,0,0-.13-7.07A61.3,61.3,0,0,0,151,69Z"/><path class="cls-1" d="M152.73,67.79a35.63,35.63,0,0,1,1,14.43,54.81,54.81,0,0,0,0-7.25A54.17,54.17,0,0,0,152.73,67.79Z"/><path class="cls-1" d="M154.5,67.52A28.49,28.49,0,0,1,155.45,81a42.28,42.28,0,0,0,.08-6.75A40.86,40.86,0,0,0,154.5,67.52Z"/><path class="cls-1" d="M156.36,66.9A29.75,29.75,0,0,1,157.71,74a30.35,30.35,0,0,1-.36,7.19,44.15,44.15,0,0,0,.11-7.18A42.66,42.66,0,0,0,156.36,66.9Z"/><path class="cls-1" d="M157.77,66.06a28.37,28.37,0,0,1,1.37,14.64,38,38,0,0,0-1.37-14.64Z"/><path class="cls-1" d="M160,65.61a24.5,24.5,0,0,1,1.37,6.45,24.22,24.22,0,0,1-.39,6.59,34.34,34.34,0,0,0,.14-6.57A34.77,34.77,0,0,0,160,65.61Z"/><path class="cls-1" d="M162,65.53a23.95,23.95,0,0,1,.71,12.38A34.25,34.25,0,0,0,162,65.53Z"/><path class="cls-1" d="M163.51,64.33a25.31,25.31,0,0,1,1.24,6.23,25,25,0,0,1-.33,6.35,37.19,37.19,0,0,0,.08-6.33A37.82,37.82,0,0,0,163.51,64.33Z"/><path class="cls-1" d="M165,63a20.51,20.51,0,0,1,1,12.57A27.18,27.18,0,0,0,165,63Z"/><path class="cls-1" d="M167.08,63a26.14,26.14,0,0,1,1.24,6.14,26.68,26.68,0,0,1-.24,6.25,40.49,40.49,0,0,0,0-6.23A38.94,38.94,0,0,0,167.08,63Z"/><path class="cls-1" d="M168.7,61.74a21.48,21.48,0,0,1,1.45,12.73A28.53,28.53,0,0,0,168.7,61.74Z"/><path class="cls-1" d="M170.74,60.64A28.81,28.81,0,0,1,172,72.87a46,46,0,0,0-1.24-12.23Z"/><path class="cls-1" d="M172.4,59.92A20.47,20.47,0,0,1,173.53,71a30.69,30.69,0,0,0,0-5.59A30.11,30.11,0,0,0,172.4,59.92Z"/><path class="cls-1" d="M173.86,58.94a14.18,14.18,0,0,1,1.94,10A19,19,0,0,0,173.86,58.94Z"/><path class="cls-1" d="M175.73,58.69a15.73,15.73,0,0,1,1.75,9.21A23.79,23.79,0,0,0,175.73,58.69Z"/><path class="cls-1" d="M177.42,57.14a15,15,0,0,1,1.5,4.22,15.33,15.33,0,0,1,.24,4.48,26.22,26.22,0,0,0-.48-4.43A25.5,25.5,0,0,0,177.42,57.14Z"/><path class="cls-1" d="M178.61,56.21a8.41,8.41,0,0,1,2.1,6.7A12.2,12.2,0,0,0,178.61,56.21Z"/><path class="cls-1" d="M179.94,54.68a6.53,6.53,0,0,1,2.11,6.48A8.53,8.53,0,0,0,179.94,54.68Z"/><path class="cls-1" d="M181.2,53.31a2.91,2.91,0,0,1,1,1.16c.26.44.49.9.71,1.36a8.17,8.17,0,0,1,.52,1.46,4.65,4.65,0,0,1,.14,1.53,8.77,8.77,0,0,0-.89-2.88c-.2-.47-.43-.92-.65-1.38A3.67,3.67,0,0,0,181.2,53.31Z"/><path class="cls-1" d="M182.4,52a4.33,4.33,0,0,1,2.25,4.29A6.16,6.16,0,0,0,182.4,52Z"/><path class="cls-1" d="M183.53,50.27a3,3,0,0,1,2,3.24A4.31,4.31,0,0,0,183.53,50.27Z"/><path class="cls-1" d="M168,57.65a4,4,0,0,1,.51,1.46,4.2,4.2,0,0,1-.06,1.54c-.07-.51-.1-1-.19-1.51S168.07,58.16,168,57.65Z"/><path class="cls-1" d="M169.25,56.74a2.9,2.9,0,0,1,.73,3.14A5.49,5.49,0,0,0,169.25,56.74Z"/><path class="cls-1" d="M170.78,55.94a2.94,2.94,0,0,1,.82,2.66A9.44,9.44,0,0,0,170.78,55.94Z"/><path class="cls-1" d="M172,52.07c.33,1,.92,1.86,1.19,2.9a6.38,6.38,0,0,1,0,3.13A9.5,9.5,0,0,0,173,55C172.75,54,172.16,53.12,172,52.07Z"/><path class="cls-1" d="M174.06,53.59a4.47,4.47,0,0,1,.88,3.33A16,16,0,0,0,174.06,53.59Z"/><path class="cls-1" d="M174.16,43.79a11.72,11.72,0,0,1-2.4-3.23A6.34,6.34,0,0,0,169,37.8a30,30,0,0,0-3.8-1.33,7.2,7.2,0,0,0-4-.07,6.58,6.58,0,0,1,4-.09,28.87,28.87,0,0,1,3.85,1.26,6.56,6.56,0,0,1,2.81,2.9A14.32,14.32,0,0,0,174.16,43.79Z"/><path class="cls-1" d="M160.82,42.76a3.93,3.93,0,0,1,.52,1.14,4,4,0,0,1,.13,1.25c-.16-.4-.25-.8-.37-1.19A11.64,11.64,0,0,1,160.82,42.76Z"/><path class="cls-1" d="M174.24,38.84a5.27,5.27,0,0,1,1.94,0,5.54,5.54,0,0,1,1.82.67c-.63-.15-1.23-.32-1.86-.43S174.89,38.92,174.24,38.84Z"/><path class="cls-1" d="M175,39.89a4.83,4.83,0,0,1,1.61,0,5.2,5.2,0,0,1,1.51.56c-.54-.09-1-.23-1.56-.31S175.5,40,175,39.89Z"/><path class="cls-1" d="M175.51,41.32a3.43,3.43,0,0,1,2.75.5A21.43,21.43,0,0,0,175.51,41.32Z"/><path class="cls-1" d="M176.44,42.78a1.36,1.36,0,0,1,1.74.21A5.43,5.43,0,0,0,176.44,42.78Z"/></svg>